<svg width="95" height="38" viewBox="0 0 95 38" fill="none" xmlns="http://www.w3.org/2000/svg">
<path d="M0 4C0 1.79086 1.79086 0 4 0H91C93.2091 0 95 1.79086 95 4V34C95 36.2091 93.2091 38 91 38H4C1.79086 38 0 36.2091 0 34V4Z" fill="url(#paint0_linear_114_95)"/>
<path d="M31.0487 24V14.2H32.5327V22.824H36.9847V24H31.0487ZM41.4731 24.168C40.8104 24.168 40.2131 24.0187 39.6811 23.72C39.1584 23.412 38.7431 22.9873 38.4351 22.446C38.1271 21.8953 37.9731 21.256 37.9731 20.528C37.9731 19.8 38.1271 19.1653 38.4351 18.624C38.7524 18.0733 39.1771 17.6487 39.7091 17.35C40.2411 17.042 40.8338 16.888 41.4871 16.888C42.1498 16.888 42.7424 17.042 43.2651 17.35C43.7971 17.6487 44.2171 18.0733 44.5251 18.624C44.8424 19.1653 45.0011 19.8 45.0011 20.528C45.0011 21.256 44.8424 21.8953 44.5251 22.446C44.2171 22.9873 43.7971 23.412 43.2651 23.72C42.7331 24.0187 42.1358 24.168 41.4731 24.168ZM41.4731 22.894C41.8278 22.894 42.1544 22.8053 42.4531 22.628C42.7611 22.4507 43.0084 22.1893 43.1951 21.844C43.3818 21.4893 43.4751 21.0507 43.4751 20.528C43.4751 20.0053 43.3818 19.5713 43.1951 19.226C43.0178 18.8713 42.7751 18.6053 42.4671 18.428C42.1684 18.2507 41.8418 18.162 41.4871 18.162C41.1324 18.162 40.8011 18.2507 40.4931 18.428C40.1944 18.6053 39.9518 18.8713 39.7651 19.226C39.5784 19.5713 39.4851 20.0053 39.4851 20.528C39.4851 21.0507 39.5784 21.4893 39.7651 21.844C39.9518 22.1893 40.1944 22.4507 40.4931 22.628C40.7918 22.8053 41.1184 22.894 41.4731 22.894ZM49.0788 21.872C48.7148 21.872 48.3788 21.83 48.0708 21.746L47.4688 22.334C47.5715 22.3993 47.6975 22.4553 47.8468 22.502C47.9962 22.5487 48.2062 22.5907 48.4768 22.628C48.7475 22.6653 49.1162 22.7027 49.5828 22.74C50.5068 22.824 51.1742 23.048 51.5848 23.412C51.9955 23.7667 52.2008 24.2427 52.2008 24.84C52.2008 25.2507 52.0888 25.638 51.8648 26.002C51.6502 26.3753 51.3095 26.674 50.8428 26.898C50.3855 27.1313 49.7975 27.248 49.0788 27.248C48.1082 27.248 47.3195 27.0613 46.7128 26.688C46.1155 26.324 45.8168 25.7687 45.8168 25.022C45.8168 24.7327 45.8915 24.4433 46.0408 24.154C46.1995 23.874 46.4468 23.608 46.7828 23.356C46.5868 23.272 46.4142 23.1833 46.2648 23.09C46.1248 22.9873 45.9988 22.8847 45.8868 22.782V22.446L47.0908 21.214C46.5495 20.7473 46.2788 20.136 46.2788 19.38C46.2788 18.9227 46.3862 18.5073 46.6008 18.134C46.8248 17.7513 47.1468 17.448 47.5668 17.224C47.9868 17 48.4908 16.888 49.0788 16.888C49.4708 16.888 49.8348 16.944 50.1708 17.056H52.7608V18.036L51.5288 18.106C51.7528 18.4887 51.8648 18.9133 51.8648 19.38C51.8648 19.8467 51.7528 20.2667 51.5288 20.64C51.3142 21.0133 50.9968 21.312 50.5768 21.536C50.1662 21.76 49.6668 21.872 49.0788 21.872ZM49.0788 20.71C49.5082 20.71 49.8535 20.598 50.1148 20.374C50.3855 20.1407 50.5208 19.814 50.5208 19.394C50.5208 18.9647 50.3855 18.638 50.1148 18.414C49.8535 18.19 49.5082 18.078 49.0788 18.078C48.6402 18.078 48.2855 18.19 48.0148 18.414C47.7535 18.638 47.6228 18.9647 47.6228 19.394C47.6228 19.814 47.7535 20.1407 48.0148 20.374C48.2855 20.598 48.6402 20.71 49.0788 20.71ZM47.2168 24.882C47.2168 25.2833 47.3942 25.582 47.7488 25.778C48.1035 25.9833 48.5468 26.086 49.0788 26.086C49.5922 26.086 50.0075 25.974 50.3248 25.75C50.6422 25.5353 50.8008 25.246 50.8008 24.882C50.8008 24.6113 50.6935 24.378 50.4788 24.182C50.2642 23.9953 49.8582 23.8787 49.2608 23.832C48.8128 23.804 48.4162 23.762 48.0708 23.706C47.7442 23.8833 47.5202 24.0747 47.3988 24.28C47.2775 24.4853 47.2168 24.686 47.2168 24.882ZM54.9245 15.74C54.6445 15.74 54.4112 15.656 54.2245 15.488C54.0472 15.3107 53.9585 15.0913 53.9585 14.83C53.9585 14.5687 54.0472 14.354 54.2245 14.186C54.4112 14.0087 54.6445 13.92 54.9245 13.92C55.2045 13.92 55.4332 14.0087 55.6105 14.186C55.7972 14.354 55.8905 14.5687 55.8905 14.83C55.8905 15.0913 55.7972 15.3107 55.6105 15.488C55.4332 15.656 55.2045 15.74 54.9245 15.74ZM54.1825 24V17.056H55.6665V24H54.1825ZM57.6255 24V17.056H58.9415L59.0535 18.274C59.2682 17.8447 59.5808 17.5087 59.9915 17.266C60.4115 17.014 60.8922 16.888 61.4335 16.888C62.2735 16.888 62.9315 17.1493 63.4075 17.672C63.8928 18.1947 64.1355 18.974 64.1355 20.01V24H62.6655V20.164C62.6655 18.82 62.1148 18.148 61.0135 18.148C60.4628 18.148 60.0055 18.344 59.6415 18.736C59.2868 19.128 59.1095 19.688 59.1095 20.416V24H57.6255Z" fill="white"/>
<defs>
<linearGradient id="paint0_linear_114_95" x1="95" y1="33" x2="3.5" y2="2.39993e-06" gradientUnits="userSpaceOnUse">
<stop stop-color="#005490"/>
<stop offset="1" stop-color="#328BCB"/>
</linearGradient>
</defs>
</svg>
